<svg xmlns="http://www.w3.org/2000/svg" viewBox="0 0 2068.3 2683.9" width="207" height="268" role="img"><title>Blue Yolk, بلو يولك</title><path fill="#334FDE" transform="translate(534.2 0)" d="M505.2 0.3C793.8 -10.0 1000.0 247.7 1000.0 536.4C1000.0 804.4 752.6 1000.3 474.2 990.0C216.5 990.0 0.0 783.8 0.0 495.1C0.0 227.1 237.1 10.6 505.2 0.3Z"/><path fill="#1C1C1E" transform="translate(-39 1820.4) scale(0.5)" d="M78 0L78 -660L329 -660Q387 -660 433 -650Q479 -640 512 -619Q545 -598 562.5 -564.5Q580 -531 580 -487Q580 -449 564.5 -419.5Q549 -390 515 -371Q481 -352 427 -344L427 -333Q520 -325 563.5 -283.5Q607 -242 607 -174Q607 -117 579 -78.5Q551 -40 495.5 -20Q440 0 354 0ZM183 -91L358 -91Q428 -91 463 -115Q498 -139 498 -187Q498 -242 452 -270.5Q406 -299 312 -299L183 -299ZM183 -374L296 -374Q384 -374 427.5 -398.5Q471 -423 471 -474Q471 -523 433 -547Q395 -571 318 -571L183 -571ZM727.1 0L727.1 -702L835.1 -702L835.1 0ZM1145.9 14Q1057.9 14 1013.9 -47.5Q969.9 -109 969.9 -232L969.9 -520L1079.9 -520L1079.9 -242Q1079.9 -161 1103.9 -121.5Q1127.9 -82 1181.9 -82Q1211.9 -82 1234.9 -96Q1257.9 -110 1275.4 -138Q1292.9 -166 1302.9 -204Q1312.9 -242 1315.9 -288L1315.9 -520L1426.9 -520L1426.9 -221L1426.9 0L1331.9 0L1337.9 -171L1321.9 -171Q1310.9 -107 1286.9 -66Q1262.9 -25 1228.4 -5.5Q1193.9 14 1145.9 14ZM1797.5 14Q1734.5 14 1687 -5Q1639.5 -24 1607 -59Q1574.5 -94 1557.5 -143Q1540.5 -192 1540.5 -252Q1540.5 -313 1557 -364Q1573.5 -415 1605 -453Q1636.5 -491 1683 -512Q1729.5 -533 1789.5 -533Q1844.5 -533 1887.5 -514.5Q1930.5 -496 1961 -459.5Q1991.5 -423 2005.5 -369Q2019.5 -315 2015.5 -244L1609.5 -240L1609.5 -309L1949.5 -311L1913.5 -269Q1919.5 -329 1904 -367.5Q1888.5 -406 1858.5 -425Q1828.5 -444 1790.5 -444Q1746.5 -444 1714 -421Q1681.5 -398 1663.5 -355.5Q1645.5 -313 1645.5 -254Q1645.5 -164 1685.5 -118Q1725.5 -72 1798.5 -72Q1830.5 -72 1852.5 -80Q1874.5 -88 1889.5 -101Q1904.5 -114 1913.5 -132Q1922.5 -150 1927.5 -169L2023.5 -149Q2014.5 -112 1997.5 -82.5Q1980.5 -53 1953 -31.5Q1925.5 -10 1887 2Q1848.5 14 1797.5 14ZM2545.4 0L2545.4 -212L2313.4 -660L2440.4 -660L2598.4 -316L2603.4 -316L2759.4 -660L2886.4 -660L2655.4 -213L2655.4 0ZM3132.4 14Q3056.4 14 2998.9 -18.5Q2941.4 -51 2908.9 -112.5Q2876.4 -174 2876.4 -262Q2876.4 -353 2909.9 -413Q2943.4 -473 3001.4 -503Q3059.4 -533 3131.4 -533Q3205.4 -533 3262.9 -502Q3320.4 -471 3353.9 -410Q3387.4 -349 3387.4 -258Q3387.4 -168 3353.9 -107.5Q3320.4 -47 3262.4 -16.5Q3204.4 14 3132.4 14ZM3136.4 -72Q3180.4 -72 3211.9 -94Q3243.4 -116 3260.4 -157Q3277.4 -198 3277.4 -254Q3277.4 -313 3259.9 -355.5Q3242.4 -398 3208.9 -421.5Q3175.4 -445 3129.4 -445Q3085.4 -445 3053.4 -423.5Q3021.4 -402 3003.9 -361.5Q2986.4 -321 2986.4 -264Q2986.4 -173 3026.9 -122.5Q3067.4 -72 3136.4 -72ZM3501.9 0L3501.9 -702L3609.9 -702L3609.9 0ZM3751.6 0L3751.6 -703L3858.6 -703L3858.6 -307Q3896.6 -327 3930.6 -353.5Q3964.6 -380 3992.6 -408.5Q4020.6 -437 4041.1 -466Q4061.6 -495 4073.6 -520L4200.6 -520Q4183.6 -483 4156.6 -445.5Q4129.6 -408 4094.6 -375.5Q4059.6 -343 4018.1 -319Q3976.6 -295 3931.6 -285L3931.6 -272Q3987.6 -280 4028.1 -265Q4068.6 -250 4097.1 -220.5Q4125.6 -191 4146.6 -153.5Q4167.6 -116 4186.6 -75L4214.6 0L4093.6 0L4075.6 -52Q4054.6 -101 4031.1 -139.5Q4007.6 -178 3975.1 -200Q3942.6 -222 3891.6 -223L3858.6 -222L3858.6 0Z"/><path fill="#1C1C1E" transform="translate(78.2 2545.9) scale(0.575)" d="M427 12Q319 12 245.5 0.5Q172 -11 126.5 -37.5Q81 -64 61 -107Q41 -150 41 -212Q41 -252 51.5 -298.5Q62 -345 82 -393L168 -368Q150 -331 140 -298Q130 -265 130 -239Q130 -209 142.5 -188Q155 -167 183 -154Q211 -141 255.5 -135Q300 -129 364 -129L504 -129Q572 -129 616.5 -132.5Q661 -136 687 -144.5Q713 -153 723 -168Q733 -183 733 -206L733 -740L839 -740L839 -206Q839 -131 921 -131L952 -131L952 -27L925 0Q847 0 802.5 -30Q758 -60 744 -125L739 -125Q731 -86 712 -60Q693 -34 656.5 -18Q620 -2 564 5Q508 12 427 12ZM340 -301L493 -374L491 -380L416 -380Q381 -380 362 -395Q343 -410 343 -448Q343 -479 363.5 -500.5Q384 -522 427 -547L491 -585L525 -528L406 -460L408 -453L485 -453Q519 -453 537 -439Q555 -425 555 -393Q555 -358 537.5 -337Q520 -316 478 -295L371 -241ZM925 -104L952 -131L992 -131Q1032 -131 1047.5 -148Q1063 -165 1063 -201L1063 -740L1169 -740L1169 -201Q1169 -98 1128.5 -49.5Q1088 -1 992 0L925 0ZM1265 109L1326 109Q1427 109 1485.5 80Q1544 51 1565 0L1446 0Q1365 0 1320 -46Q1275 -92 1275 -174Q1275 -224 1290 -267Q1305 -310 1331.5 -342Q1358 -374 1394.5 -392Q1431 -410 1473 -410Q1562 -410 1614 -336.5Q1666 -263 1669 -131L1718 -131L1718 -27L1691 0L1657 0Q1631 115 1550 177.5Q1469 240 1333 240L1265 240ZM1366 -191Q1366 -159 1388.5 -145Q1411 -131 1453 -131L1577 -131L1577 -142Q1577 -205 1545 -242Q1513 -279 1462 -279Q1420 -279 1393 -254Q1366 -229 1366 -191ZM1691 -104L1718 -131L1743 -131Q1813 -131 1839.5 -145.5Q1866 -160 1866 -198Q1866 -214 1863.5 -238.5Q1861 -263 1854 -304L1838 -394L1936 -410L1950 -320Q1955 -286 1958 -253.5Q1961 -221 1961 -198Q1961 -96 1909 -48Q1857 0 1743 0L1691 0ZM1934 210Q1910 210 1894.5 195.5Q1879 181 1879 149Q1879 116 1894.5 101.5Q1910 87 1934 87L1951 87Q1975 87 1990.5 101.5Q2006 116 2006 149Q2006 181 1990.5 195.5Q1975 210 1951 210ZM1785 210Q1761 210 1745.5 195.5Q1730 181 1730 149Q1730 116 1745.5 101.5Q1761 87 1785 87L1802 87Q1826 87 1841.5 101.5Q1857 116 1857 149Q1857 181 1841.5 195.5Q1826 210 1802 210ZM2263 109L2324 109Q2425 109 2483.5 80Q2542 51 2563 0L2444 0Q2363 0 2318 -46Q2273 -92 2273 -174Q2273 -224 2288 -267Q2303 -310 2329.5 -342Q2356 -374 2392.5 -392Q2429 -410 2471 -410Q2560 -410 2612 -336.5Q2664 -263 2667 -131L2716 -131L2716 -27L2689 0L2655 0Q2629 115 2548 177.5Q2467 240 2331 240L2263 240ZM2364 -191Q2364 -159 2386.5 -145Q2409 -131 2451 -131L2575 -131L2575 -142Q2575 -205 2543 -242Q2511 -279 2460 -279Q2418 -279 2391 -254Q2364 -229 2364 -191ZM2689 -104L2716 -131L2744 -131Q2786 -131 2805.5 -149.5Q2825 -168 2825 -206L2825 -740L2932 -740L2932 -206Q2932 -131 3006 -131L3041 -131L3041 -27L3014 0Q2936 0 2893.5 -30Q2851 -60 2837 -124L2831 -124Q2819 -58 2786 -29Q2753 0 2689 0ZM3014 -104L3041 -131L3066 -131Q3136 -131 3162.5 -145.5Q3189 -160 3189 -198Q3189 -214 3186.5 -238.5Q3184 -263 3177 -304L3161 -394L3259 -410L3273 -320Q3278 -286 3281 -253.5Q3284 -221 3284 -198Q3284 -96 3232 -48Q3180 0 3066 0L3014 0ZM3182 210Q3158 210 3142.5 195.5Q3127 181 3127 149Q3127 116 3142.5 101.5Q3158 87 3182 87L3199 87Q3223 87 3238.5 101.5Q3254 116 3254 149Q3254 181 3238.5 195.5Q3223 210 3199 210Z"/></svg>
